<svg xmlns="http://www.w3.org/2000/svg" width="854" height="592" fill="none" viewBox="0 0 854 592">
    <g clip-path="url(#a)" opacity=".5">
        <path fill="#618641"
              d="M0 256.72C0 180.608 59.45 0 132.786 0s132.787 180.608 132.787 256.72c0 36.55-13.99 71.603-38.893 97.447-24.902 25.845-58.677 40.365-93.894 40.365-35.217 0-68.992-14.52-93.894-40.365C13.99 328.323 0 293.27 0 256.72Z"/>
        <path fill="#3F3D56"
              d="M132.786 592c-.289 0-.567-.119-.772-.332a1.154 1.154 0 0 1-.32-.801v-475.13c0-.3.115-.589.32-.801.205-.213.483-.332.772-.332.29 0 .567.119.772.332.205.212.32.501.32.801v475.13c0 .3-.115.589-.32.801a1.07 1.07 0 0 1-.772.332Z"/>
        <path fill="#3F3D56"
              d="M132.786 207.464a1.08 1.08 0 0 1-.772-.332l-52.556-54.545a1.17 1.17 0 0 1-.005-1.608 1.065 1.065 0 0 1 .776-.332 1.064 1.064 0 0 1 .773.338l52.556 54.545c.153.158.257.36.299.58.042.22.02.448-.062.655a1.127 1.127 0 0 1-.402.508c-.18.125-.391.191-.607.191Zm0 94.429c-.216 0-.427-.066-.606-.191a1.114 1.114 0 0 1-.402-.508 1.172 1.172 0 0 1-.063-.655c.043-.22.146-.421.299-.58l88.016-91.347c.101-.106.221-.191.354-.249a1.046 1.046 0 0 1 .839-.003 1.128 1.128 0 0 1 .593.616 1.177 1.177 0 0 1-.003.871 1.135 1.135 0 0 1-.239.367l-88.016 91.347a1.07 1.07 0 0 1-.772.332Z"/>
        <path fill="#E6E6E6"
              d="M253.017 349.353c0-54.692 42.749-184.474 95.482-184.474s95.482 129.782 95.482 184.474c-.017 26.27-10.084 51.458-27.989 70.028-17.904 18.569-42.181 29.001-67.493 29.001-25.312 0-49.589-10.432-67.493-29.001-17.905-18.57-27.972-43.758-27.989-70.028Z"/>
        <path fill="#3F3D56"
              d="M348.499 590.278a.773.773 0 0 1-.725-.502.833.833 0 0 1-.06-.312V248.046a.83.83 0 0 1 .231-.574.77.77 0 0 1 .554-.238.77.77 0 0 1 .554.238.83.83 0 0 1 .231.574v341.418a.833.833 0 0 1-.23.576.775.775 0 0 1-.555.238Z"/>
        <path fill="#3F3D56"
              d="M348.499 313.959a.787.787 0 0 1-.555-.238l-37.792-39.196a.831.831 0 0 1-.229-.576c0-.216.082-.423.23-.576a.773.773 0 0 1 .555-.238.77.77 0 0 1 .555.239l37.791 39.195a.842.842 0 0 1 .17.888.807.807 0 0 1-.289.365.768.768 0 0 1-.436.137Zm0 67.855a.768.768 0 0 1-.436-.137.81.81 0 0 1-.289-.366.847.847 0 0 1-.045-.47.821.821 0 0 1 .215-.417l63.289-65.64a.781.781 0 0 1 .555-.239c.103 0 .205.021.3.062a.798.798 0 0 1 .425.44.833.833 0 0 1 0 .624.798.798 0 0 1-.17.264l-63.289 65.64a.781.781 0 0 1-.555.239Z"/>
    </g>
    <defs>
        <clipPath id="a">
            <path fill="#fff" d="M0 0h854v592H0z"/>
        </clipPath>
    </defs>
</svg>
